<svg width="30" height="29" viewBox="0 0 30 29" fill="none" xmlns="http://www.w3.org/2000/svg">
    <path fill-rule="evenodd" clip-rule="evenodd" d="M18.8499 2.19847C16.9718 -0.351964 13.0282 -0.351963 11.1501 2.19847C10.2107 3.47414 8.65156 4.19444 7.02619 4.10365C3.77663 3.92213 1.31788 6.87988 2.22545 9.8787C2.67939 11.3786 2.29432 12.9971 1.20693 14.1596C-0.967079 16.4837 -0.0895604 20.1719 2.92029 21.361C4.42576 21.9557 5.50472 23.2536 5.77412 24.794C6.31275 27.8736 9.86575 29.515 12.7114 27.9989C14.1347 27.2406 15.8653 27.2406 17.2886 27.9989C20.1343 29.515 23.6873 27.8736 24.2259 24.794C24.4953 23.2536 25.5742 21.9557 27.0797 21.361C30.0896 20.1719 30.9671 16.4837 28.7931 14.1596C27.7057 12.9971 27.3206 11.3786 27.7746 9.8787C28.6821 6.87988 26.2234 3.92213 22.9738 4.10365C21.3484 4.19444 19.7893 3.47414 18.8499 2.19847ZM21.9506 12.5621C22.397 12.1067 22.397 11.3684 21.9506 10.913C21.5043 10.4576 20.7807 10.4576 20.3344 10.913L13.7139 17.6679L10.5221 14.4112C10.0758 13.9558 9.35214 13.9558 8.90582 14.4112C8.45951 14.8666 8.45951 15.6049 8.90582 16.0603L12.0977 19.317C12.9903 20.2277 14.4376 20.2277 15.3302 19.317L21.9506 12.5621Z" fill="#0A9DFF"/>
</svg>
